<svg width="64" height="64" viewBox="0 0 64 64" fill="none" xmlns="http://www.w3.org/2000/svg">
<path fill-rule="evenodd" clip-rule="evenodd" d="M51.9378 27.3297C50.8193 26.3833 49.1807 26.3833 48.0621 27.3297L40.522 33.7098C38.3886 35.515 39.6652 39 42.4599 39H44V42C44 44.7614 41.7614 47 39 47H24.25C21.9028 47 20 45.0972 20 42.75C20 41.2312 18.7688 40 17.25 40H11C9.34312 40 7.99997 41.3431 7.99997 43V44C7.99997 52.2843 14.7157 59 23 59H41C49.2842 59 56 52.2843 56 44V39H57.5401C60.3348 39 61.6113 35.515 59.4779 33.7098L51.9378 27.3297Z" fill="#5C428F"/>
<path fill-rule="evenodd" clip-rule="evenodd" d="M23 4C14.7157 4 7.99996 10.7157 7.99996 19V24H6.45985C3.66517 24 2.3886 27.485 4.52203 29.2902L12.0621 35.6703C13.1807 36.6167 14.8193 36.6167 15.9378 35.6703L23.4779 29.2902C25.6113 27.485 24.3348 24 21.5401 24H20V21C20 18.2386 22.2385 16 25 16H39.75C42.0972 16 44 17.9028 44 20.25C44 21.7688 45.2312 23 46.75 23H53C54.6568 23 56 21.6569 56 20V19C56 10.7157 49.2842 4 41 4H23Z" fill="#5C428F"/>
<path d="M27.5475 31.6382C27.8974 30.7873 29.1026 30.7873 29.4524 31.6382L30.1366 33.3025C30.2411 33.5569 30.4431 33.7588 30.6975 33.8634L32.3617 34.5476C33.2127 34.8974 33.2127 36.1026 32.3617 36.4524L30.6975 37.1366C30.4431 37.2412 30.2411 37.4431 30.1366 37.6975L29.4524 39.3618C29.1026 40.2127 27.8974 40.2127 27.5475 39.3618L26.8634 37.6975C26.7588 37.4431 26.5568 37.2412 26.3025 37.1366L24.6382 36.4524C23.7872 36.1026 23.7872 34.8974 24.6382 34.5476L26.3025 33.8634C26.5568 33.7588 26.7588 33.5569 26.8634 33.3025L27.5475 31.6382Z" fill="#5C428F"/>
<path d="M35.5243 23.6538C35.8827 22.7821 37.1173 22.7821 37.4756 23.6538L37.5619 23.8635C37.669 24.1241 37.8759 24.331 38.1364 24.4381L38.3462 24.5243C39.2179 24.8827 39.2179 26.1173 38.3462 26.4757L38.1364 26.5619C37.8759 26.669 37.669 26.8759 37.5619 27.1365L37.4756 27.3462C37.1173 28.2179 35.8827 28.2179 35.5243 27.3462L35.4381 27.1365C35.331 26.8759 35.1241 26.669 34.8635 26.5619L34.6538 26.4757C33.782 26.1173 33.782 24.8827 34.6538 24.5243L34.8635 24.4381C35.1241 24.331 35.331 24.1241 35.4381 23.8635L35.5243 23.6538Z" fill="#5C428F"/>
<path d="M50.646 28.8565C50.2731 28.541 49.7269 28.541 49.3541 28.8565L41.814 35.2366C41.1028 35.8384 41.5283 37 42.4599 37H45C45.5523 37 46 37.4477 46 38V42C46 45.866 42.866 49 39 49H11L10.9963 49C12.9555 53.6979 17.5921 57 23 57H41C48.1797 57 54 51.1797 54 44V38C54 37.4477 54.4477 37 55 37H57.5401C58.4717 37 58.8972 35.8383 58.1861 35.2366L50.646 28.8565Z" fill="#5C428F"/>
<path d="M22.9999 6C15.8202 6 9.99987 11.8203 9.99987 19V25C9.99987 25.5523 9.55216 26 8.99987 26H6.45976C5.5282 26 5.10268 27.1617 5.81382 27.7634L13.3539 34.1435C13.7268 34.459 14.273 34.459 14.6458 34.1435L22.1859 27.7634C22.8971 27.1616 22.4715 26 21.54 26H18.9999C18.4476 26 17.9999 25.5523 17.9999 25V21C17.9999 17.134 21.1339 14 24.9999 14H52.9999L53.0036 14C51.0444 9.3021 46.4078 6 40.9999 6H22.9999Z" fill="#E9EDF0"/>
</svg>
