<svg width="33" height="33" viewBox="0 0 33 33" fill="none" xmlns="http://www.w3.org/2000/svg">
<rect x="1" y="1" width="13" height="13" rx="5" fill="#5C428F"/>
<rect x="19" y="1" width="13" height="13" rx="5" fill="#5C428F"/>
<rect x="19" y="19" width="13" height="13" rx="5" fill="#5C428F"/>
<rect x="1" y="19" width="13" height="13" rx="5" fill="#5C428F"/>
<path fill-rule="evenodd" clip-rule="evenodd" d="M10.8295 2.86977C8.55757 2.61598 6.20576 2.61598 3.93382 2.86977C3.38177 2.93144 2.9464 3.36835 2.88431 3.89898C2.613 6.21747 2.613 8.55967 2.88431 10.8782C2.9464 11.4088 3.38177 11.8457 3.93382 11.9074C6.20576 12.1612 8.55757 12.1612 10.8295 11.9074C11.3816 11.8457 11.8169 11.4088 11.879 10.8782C12.1503 8.55967 12.1503 6.21747 11.879 3.89898C11.8169 3.36835 11.3816 2.93144 10.8295 2.86977ZM3.63605 0.206923C6.10589 -0.0689742 8.65745 -0.0689742 11.1273 0.206923C12.8981 0.404738 14.3323 1.79802 14.5417 3.58771C14.8372 6.11301 14.8372 8.66413 14.5417 11.1894C14.3323 12.9791 12.8981 14.3724 11.1273 14.5702C8.65745 14.8461 6.10589 14.8461 3.63605 14.5702C1.86521 14.3724 0.431063 12.9791 0.221633 11.1894C-0.0738776 8.66413 -0.0738776 6.11301 0.221633 3.58772C0.431063 1.79802 1.8652 0.404738 3.63605 0.206923Z" fill="white"/>
<path fill-rule="evenodd" clip-rule="evenodd" d="M10.8295 20.7326C8.55757 20.4788 6.20576 20.4788 3.93382 20.7326C3.38177 20.7943 2.9464 21.2312 2.88431 21.7618C2.613 24.0803 2.613 26.4225 2.88431 28.741C2.9464 29.2717 3.38177 29.7086 3.93382 29.7702C6.20576 30.024 8.55757 30.024 10.8295 29.7702C11.3816 29.7086 11.8169 29.2717 11.879 28.741C12.1503 26.4225 12.1503 24.0803 11.879 21.7618C11.8169 21.2312 11.3816 20.7943 10.8295 20.7326ZM3.63605 18.0698C6.10589 17.7939 8.65745 17.7939 11.1273 18.0698C12.8981 18.2676 14.3323 19.6609 14.5417 21.4506C14.8372 23.9759 14.8372 26.527 14.5417 29.0523C14.3323 30.842 12.8981 32.2353 11.1273 32.4331C8.65745 32.709 6.10589 32.709 3.63605 32.4331C1.86521 32.2353 0.431063 30.842 0.221633 29.0523C-0.0738776 26.527 -0.0738776 23.9759 0.221633 21.4506C0.431063 19.6609 1.8652 18.2676 3.63605 18.0698Z" fill="white"/>
<path fill-rule="evenodd" clip-rule="evenodd" d="M28.7017 2.86977C26.4298 2.61598 24.0779 2.61598 21.806 2.86977C21.2539 2.93144 20.8186 3.36835 20.7565 3.89898C20.4852 6.21747 20.4852 8.55967 20.7565 10.8782C20.8186 11.4088 21.2539 11.8457 21.806 11.9074C24.0779 12.1612 26.4298 12.1612 28.7017 11.9074C29.2538 11.8457 29.6891 11.4088 29.7512 10.8782C30.0225 8.55967 30.0225 6.21747 29.7512 3.89898C29.6891 3.36835 29.2537 2.93144 28.7017 2.86977ZM21.5082 0.206923C23.9781 -0.0689742 26.5296 -0.0689742 28.9995 0.206923C30.7703 0.404738 32.2045 1.79802 32.4139 3.58771C32.7094 6.11301 32.7094 8.66413 32.4139 11.1894C32.2045 12.9791 30.7703 14.3724 28.9995 14.5702C26.5296 14.8461 23.9781 14.8461 21.5082 14.5702C19.7374 14.3724 18.3032 12.9791 18.0938 11.1894C17.7983 8.66413 17.7983 6.11301 18.0938 3.58772C18.3032 1.79802 19.7374 0.404738 21.5082 0.206923Z" fill="white"/>
<path fill-rule="evenodd" clip-rule="evenodd" d="M28.7017 20.7326C26.4298 20.4788 24.0779 20.4788 21.806 20.7326C21.2539 20.7943 20.8186 21.2312 20.7565 21.7618C20.4852 24.0803 20.4852 26.4225 20.7565 28.741C20.8186 29.2717 21.2539 29.7086 21.806 29.7702C24.0779 30.024 26.4298 30.024 28.7017 29.7702C29.2538 29.7086 29.6891 29.2717 29.7512 28.741C30.0225 26.4225 30.0225 24.0803 29.7512 21.7618C29.6891 21.2312 29.2537 20.7943 28.7017 20.7326ZM21.5082 18.0698C23.9781 17.7939 26.5296 17.7939 28.9995 18.0698C30.7703 18.2676 32.2045 19.6609 32.4139 21.4506C32.7094 23.9759 32.7094 26.527 32.4139 29.0523C32.2045 30.842 30.7703 32.2353 28.9995 32.4331C26.5296 32.709 23.9781 32.709 21.5082 32.4331C19.7374 32.2353 18.3032 30.842 18.0938 29.0523C17.7983 26.527 17.7983 23.9759 18.0938 21.4506C18.3032 19.6609 19.7374 18.2676 21.5082 18.0698Z" fill="white"/>
</svg>
