<svg width="96" height="96" viewBox="0 0 96 96" fill="none" xmlns="http://www.w3.org/2000/svg">
<rect width="96" height="96" rx="48" fill="#C5BDDB"/>
<path fill-rule="evenodd" clip-rule="evenodd" d="M67.9378 43.3297C66.8193 42.3833 65.1807 42.3833 64.0621 43.3297L56.522 49.7098C54.3886 51.515 55.6652 55 58.4599 55H60V58C60 60.7614 57.7614 63 55 63H40.25C37.9028 63 36 61.0972 36 58.75C36 57.2312 34.7688 56 33.25 56H27C25.3431 56 24 57.3431 24 59V60C24 68.2843 30.7157 75 39 75H57C65.2842 75 72 68.2843 72 60V55H73.5401C76.3348 55 77.6113 51.515 75.4779 49.7098L67.9378 43.3297Z" fill="#5C428F"/>
<path fill-rule="evenodd" clip-rule="evenodd" d="M39 20C30.7157 20 24 26.7157 24 35V40H22.4599C19.6652 40 18.3886 43.485 20.522 45.2902L28.0621 51.6703C29.1807 52.6167 30.8193 52.6167 31.9378 51.6703L39.4779 45.2902C41.6113 43.485 40.3348 40 37.5401 40H36V37C36 34.2386 38.2385 32 41 32H55.75C58.0972 32 60 33.9028 60 36.25C60 37.7688 61.2312 39 62.75 39H69C70.6568 39 72 37.6569 72 36V35C72 26.7157 65.2842 20 57 20H39Z" fill="#5C428F"/>
<path d="M43.5475 47.6382C43.8974 46.7873 45.1026 46.7873 45.4524 47.6382L46.1366 49.3025C46.2411 49.5569 46.4431 49.7588 46.6975 49.8634L48.3617 50.5476C49.2127 50.8974 49.2127 52.1026 48.3617 52.4524L46.6975 53.1366C46.4431 53.2412 46.2411 53.4431 46.1366 53.6975L45.4524 55.3618C45.1026 56.2127 43.8974 56.2127 43.5475 55.3618L42.8634 53.6975C42.7588 53.4431 42.5568 53.2412 42.3025 53.1366L40.6382 52.4524C39.7872 52.1026 39.7872 50.8974 40.6382 50.5476L42.3025 49.8634C42.5568 49.7588 42.7588 49.5569 42.8634 49.3025L43.5475 47.6382Z" fill="#5C428F"/>
<path d="M51.5243 39.6538C51.8827 38.7821 53.1173 38.7821 53.4756 39.6538L53.5619 39.8635C53.669 40.1241 53.8759 40.331 54.1364 40.4381L54.3462 40.5243C55.2179 40.8827 55.2179 42.1173 54.3462 42.4757L54.1364 42.5619C53.8759 42.669 53.669 42.8759 53.5619 43.1365L53.4756 43.3462C53.1173 44.2179 51.8827 44.2179 51.5243 43.3462L51.4381 43.1365C51.331 42.8759 51.1241 42.669 50.8635 42.5619L50.6538 42.4757C49.782 42.1173 49.782 40.8827 50.6538 40.5243L50.8635 40.4381C51.1241 40.331 51.331 40.1241 51.4381 39.8635L51.5243 39.6538Z" fill="#5C428F"/>
<path d="M66.646 44.8565C66.2731 44.541 65.7269 44.541 65.3541 44.8565L57.814 51.2366C57.1028 51.8384 57.5283 53 58.4599 53H61C61.5523 53 62 53.4477 62 54V58C62 61.866 58.866 65 55 65H27L26.9963 65C28.9555 69.6979 33.5921 73 39 73H57C64.1797 73 70 67.1797 70 60V54C70 53.4477 70.4477 53 71 53H73.5401C74.4717 53 74.8972 51.8383 74.1861 51.2366L66.646 44.8565Z" fill="#5C428F"/>
<path d="M38.9999 22C31.8202 22 25.9999 27.8203 25.9999 35V41C25.9999 41.5523 25.5522 42 24.9999 42H22.4598C21.5282 42 21.1027 43.1617 21.8138 43.7634L29.3539 50.1435C29.7268 50.459 30.273 50.459 30.6458 50.1435L38.1859 43.7634C38.8971 43.1616 38.4715 42 37.54 42H34.9999C34.4476 42 33.9999 41.5523 33.9999 41V37C33.9999 33.134 37.1339 30 40.9999 30H68.9999L69.0036 30C67.0444 25.3021 62.4078 22 56.9999 22H38.9999Z" fill="#E9EDF0"/>
</svg>
